<?xml version="1.0" standalone="no"?>
<!DOCTYPE svg PUBLIC "-//W3C//DTD SVG 1.1//EN" "http://www.w3.org/Graphics/SVG/1.1/DTD/svg11.dtd"><svg t="1740575765593"
    class="icon" viewBox="0 0 1024 1024" version="1.1" xmlns="http://www.w3.org/2000/svg" p-id="1697"
    xmlns:xlink="http://www.w3.org/1999/xlink" width="200" height="200">
    <path
        d="M203.178667 451.84a43.008 43.008 0 1 0 11.093333-85.333333l-75.093333-18.773334a42.666667 42.666667 0 1 0-22.186667 82.346667l75.093333 20.053333a33.194667 33.194667 0 0 0 11.093334 1.706667zM367.872 213.333333a42.666667 42.666667 0 0 0 42.666667 31.573334 34.986667 34.986667 0 0 0 11.093333 0 42.666667 42.666667 0 0 0 29.866667-52.053334l-20.053334-75.093333a42.666667 42.666667 0 1 0-82.346666 22.186667L367.872 213.333333z m206.08 426.666667a42.666667 42.666667 0 0 0-61.866667 0l-149.333333 151.893333a94.293333 94.293333 0 0 1-130.56 0 91.733333 91.733333 0 0 1 0-130.56l151.893333-149.333333a42.666667 42.666667 0 1 0-60.16-60.16l-153.173333 148.906667A178.602667 178.602667 0 0 0 423.338667 853.333333l150.613333-150.613333a42.581333 42.581333 0 0 0 0-62.72z m-352.853333-358.826667a42.666667 42.666667 0 0 0 60.16 0 42.666667 42.666667 0 0 0 0-60.16l-55.04-55.04a42.666667 42.666667 0 0 0-60.16 60.16l55.04 55.04z m686.08 312.746667l-75.093334-20.053333a42.666667 42.666667 0 1 0-21.333333 82.346666l75.093333 20.053334h11.093334a43.008 43.008 0 1 0 11.093333-85.333334l-0.853333 2.986667zM656.298667 810.666667a42.581333 42.581333 0 0 0-82.346667 22.186666l20.053333 75.093334a42.666667 42.666667 0 0 0 42.666667 31.573333c3.669333 0.426667 7.381333 0.426667 11.093333 0a42.624 42.624 0 0 0 30.293334-52.48l-21.76-76.373333z m146.773333-66.986667a42.666667 42.666667 0 0 0-60.16 60.16l55.04 55.04a42.666667 42.666667 0 0 0 60.16 0 42.666667 42.666667 0 0 0 0-60.16l-55.04-55.04zM904.618667 298.666667a177.493333 177.493333 0 0 0-303.786667-128l-150.613333 151.893333A43.605333 43.605333 0 0 0 512.085333 384l149.333334-151.893333a94.293333 94.293333 0 0 1 130.56 0 91.648 91.648 0 0 1 0 130.56l-151.893334 149.333333a42.666667 42.666667 0 0 0 0 60.16 42.666667 42.666667 0 0 0 60.16 0l153.173334-148.906667a178.773333 178.773333 0 0 0 51.2-124.586666z"
        fill="#000000" p-id="1698"></path>
</svg>